<?xml version="1.0" encoding="utf-8"?>
<!-- Generator: Adobe Illustrator 23.1.0, SVG Export Plug-In . SVG Version: 6.00 Build 0)  -->
<svg version="1.1" id="Layer_1" xmlns="http://www.w3.org/2000/svg" xmlns:xlink="http://www.w3.org/1999/xlink" x="0px" y="0px"
	 viewBox="0 0 300 60" style="enable-background:new 0 0 300 60;" xml:space="preserve">
<style type="text/css">
	.st0{fill:url(#SVGID_1_);}
	.st1{fill:url(#SVGID_2_);}
	.st2{fill:url(#SVGID_3_);}
	.st3{fill:url(#SVGID_4_);}
	.st4{fill:url(#SVGID_5_);}
	.st5{fill:url(#SVGID_6_);}
	.st6{fill:url(#SVGID_7_);}
	.st7{fill:url(#SVGID_8_);}
	.st8{fill:url(#SVGID_9_);}
	.st9{fill:url(#SVGID_10_);}
	.st10{fill:url(#SVGID_11_);}
	.st11{fill:#CF469D;}
</style>
<g>
	<g>
		<linearGradient id="SVGID_1_" gradientUnits="userSpaceOnUse" x1="82.5318" y1="29.9999" x2="220.1846" y2="29.9999">
			<stop  offset="0.3203" style="stop-color:#CF469D"/>
			<stop  offset="0.5868" style="stop-color:#9683B2"/>
			<stop  offset="0.866" style="stop-color:#60BEC5"/>
			<stop  offset="1" style="stop-color:#4BD5CD"/>
		</linearGradient>
		<path class="st0" d="M103.71,15.34v29.33H99.1V30.04l-3.73,10.01h-2.68l-3.73-10.01v14.62h-4.61V15.34h2.64l7.04,16.26l7.04-16.26
			H103.71z"/>
		<linearGradient id="SVGID_2_" gradientUnits="userSpaceOnUse" x1="82.5318" y1="30.1675" x2="220.1846" y2="30.1675">
			<stop  offset="0.3203" style="stop-color:#CF469D"/>
			<stop  offset="0.5868" style="stop-color:#9683B2"/>
			<stop  offset="0.866" style="stop-color:#60BEC5"/>
			<stop  offset="1" style="stop-color:#4BD5CD"/>
		</linearGradient>
		<path class="st1" d="M113.8,45c-2.01,0-3.63-0.57-4.86-1.72c-1.4-1.34-2.1-3.17-2.1-5.49V15.34h4.61v22.46
			c0,1.03,0.19,1.73,0.59,2.1c0.36,0.34,0.95,0.5,1.76,0.5c0.78,0,1.35-0.17,1.72-0.5c0.42-0.39,0.63-1.09,0.63-2.1V15.34h4.61
			v22.46c0,2.26-0.7,4.09-2.1,5.49C117.38,44.43,115.76,45,113.8,45z"/>
		<linearGradient id="SVGID_3_" gradientUnits="userSpaceOnUse" x1="82.5318" y1="30" x2="220.1846" y2="30">
			<stop  offset="0.3203" style="stop-color:#CF469D"/>
			<stop  offset="0.5868" style="stop-color:#9683B2"/>
			<stop  offset="0.866" style="stop-color:#60BEC5"/>
			<stop  offset="1" style="stop-color:#4BD5CD"/>
		</linearGradient>
		<path class="st2" d="M130.18,45c-2.01,0-3.63-0.57-4.86-1.72c-1.4-1.34-2.1-3.17-2.1-5.49v-3.81h4.61v3.81
			c0,1.01,0.21,1.7,0.63,2.1c0.36,0.34,0.94,0.5,1.72,0.5c0.81,0,1.38-0.17,1.72-0.5c0.42-0.36,0.63-1.06,0.63-2.1v-1.84
			c0-1.28-0.52-2.4-1.55-3.35c-0.22-0.2-0.81-0.56-1.76-1.09c-1.31-0.7-2.28-1.31-2.89-1.84c-1.01-0.89-1.77-1.91-2.3-3.06
			c-0.53-1.14-0.8-2.37-0.8-3.69v-0.71c0-2.32,0.7-4.15,2.1-5.49c1.23-1.14,2.85-1.72,4.86-1.72c2.01,0,3.63,0.57,4.86,1.72
			c1.4,1.34,2.1,3.17,2.1,5.49v2.56h-4.61v-2.56c0-1.03-0.21-1.73-0.63-2.1c-0.34-0.34-0.91-0.5-1.72-0.5
			c-0.78,0-1.36,0.17-1.72,0.5c-0.42,0.39-0.63,1.09-0.63,2.1v0.71c0,1.28,0.52,2.39,1.55,3.31c0.28,0.22,0.82,0.56,1.63,1.01
			c1.45,0.78,2.46,1.42,3.02,1.93c2.07,1.84,3.1,4.11,3.1,6.79v1.84c0,2.32-0.7,4.15-2.1,5.49C133.82,44.43,132.2,45,130.18,45z"/>
		<linearGradient id="SVGID_4_" gradientUnits="userSpaceOnUse" x1="82.5318" y1="29.9999" x2="220.1846" y2="29.9999">
			<stop  offset="0.3203" style="stop-color:#CF469D"/>
			<stop  offset="0.5868" style="stop-color:#9683B2"/>
			<stop  offset="0.866" style="stop-color:#60BEC5"/>
			<stop  offset="1" style="stop-color:#4BD5CD"/>
		</linearGradient>
		<path class="st3" d="M144.43,44.66h-4.61V15.34h4.61V44.66z"/>
		<linearGradient id="SVGID_5_" gradientUnits="userSpaceOnUse" x1="82.5318" y1="30" x2="220.1846" y2="30">
			<stop  offset="0.3203" style="stop-color:#CF469D"/>
			<stop  offset="0.5868" style="stop-color:#9683B2"/>
			<stop  offset="0.866" style="stop-color:#60BEC5"/>
			<stop  offset="1" style="stop-color:#4BD5CD"/>
		</linearGradient>
		<path class="st4" d="M154.36,45c-1.96,0-3.58-0.57-4.86-1.72c-1.4-1.4-2.09-3.23-2.09-5.49V22.21c0-2.26,0.7-4.09,2.09-5.49
			c1.28-1.14,2.91-1.72,4.86-1.72c2.01,0,3.63,0.57,4.86,1.72c1.4,1.34,2.1,3.17,2.1,5.49v2.6h-4.61v-2.6c0-1.03-0.2-1.73-0.59-2.1
			c-0.36-0.34-0.95-0.5-1.76-0.5c-0.78,0-1.36,0.17-1.72,0.5c-0.42,0.39-0.63,1.09-0.63,2.1v15.59c0,1.01,0.21,1.7,0.63,2.1
			c0.36,0.34,0.94,0.5,1.72,0.5c0.81,0,1.4-0.17,1.76-0.5c0.39-0.36,0.59-1.06,0.59-2.1v-3.77h4.61v3.77c0,2.32-0.7,4.15-2.1,5.49
			C157.99,44.43,156.37,45,154.36,45z"/>
		<linearGradient id="SVGID_6_" gradientUnits="userSpaceOnUse" x1="82.5318" y1="29.9999" x2="220.1846" y2="29.9999">
			<stop  offset="0.3203" style="stop-color:#CF469D"/>
			<stop  offset="0.5868" style="stop-color:#9683B2"/>
			<stop  offset="0.866" style="stop-color:#60BEC5"/>
			<stop  offset="1" style="stop-color:#4BD5CD"/>
		</linearGradient>
		<path class="st5" d="M190.06,15.34l-3.6,29.33h-2.56l-4.11-14.58l-4.06,14.58h-2.56l-3.6-29.33h4.65l1.59,14.62l2.68-9.97h2.64
			l2.68,9.97l1.59-14.62H190.06z"/>
		<linearGradient id="SVGID_7_" gradientUnits="userSpaceOnUse" x1="82.5318" y1="29.9999" x2="220.1846" y2="29.9999">
			<stop  offset="0.3203" style="stop-color:#CF469D"/>
			<stop  offset="0.5868" style="stop-color:#9683B2"/>
			<stop  offset="0.866" style="stop-color:#60BEC5"/>
			<stop  offset="1" style="stop-color:#4BD5CD"/>
		</linearGradient>
		<path class="st6" d="M196.97,44.66h-4.61V15.34h4.61V44.66z"/>
		<linearGradient id="SVGID_8_" gradientUnits="userSpaceOnUse" x1="82.5318" y1="29.9999" x2="220.1846" y2="29.9999">
			<stop  offset="0.3203" style="stop-color:#CF469D"/>
			<stop  offset="0.5868" style="stop-color:#9683B2"/>
			<stop  offset="0.866" style="stop-color:#60BEC5"/>
			<stop  offset="1" style="stop-color:#4BD5CD"/>
		</linearGradient>
		<path class="st7" d="M213.65,44.66h-13.95l7.63-24.68h-7.63v-4.65h13.95l-7.63,24.68h7.63V44.66z"/>
		<linearGradient id="SVGID_9_" gradientUnits="userSpaceOnUse" x1="82.5318" y1="29.9999" x2="220.1846" y2="29.9999">
			<stop  offset="0.3203" style="stop-color:#CF469D"/>
			<stop  offset="0.5868" style="stop-color:#9683B2"/>
			<stop  offset="0.866" style="stop-color:#60BEC5"/>
			<stop  offset="1" style="stop-color:#4BD5CD"/>
		</linearGradient>
		<path class="st8" d="M226.05,40.01h-5.28l-0.84,4.65h-4.69l5.87-29.33h4.61l5.87,29.33h-4.69L226.05,40.01z M225.25,35.41
			l-1.84-10.52l-1.84,10.52H225.25z"/>
		<linearGradient id="SVGID_10_" gradientUnits="userSpaceOnUse" x1="82.5318" y1="29.9999" x2="220.1846" y2="29.9999">
			<stop  offset="0.3203" style="stop-color:#CF469D"/>
			<stop  offset="0.5868" style="stop-color:#9683B2"/>
			<stop  offset="0.866" style="stop-color:#60BEC5"/>
			<stop  offset="1" style="stop-color:#4BD5CD"/>
		</linearGradient>
		<path class="st9" d="M247.63,44.66h-4.69l-2.39-11.77h-2.1v11.77h-4.61V15.34h6.95c1.98,0,3.6,0.59,4.86,1.76
			c1.4,1.28,2.09,3.1,2.09,5.45v3.14c0,2.37-0.7,4.2-2.09,5.49c-0.2,0.2-0.42,0.38-0.67,0.54L247.63,44.66z M243.14,22.54
			c0-0.98-0.21-1.68-0.63-2.1c-0.36-0.34-0.94-0.5-1.72-0.5h-2.35v8.34h2.35c0.78,0,1.35-0.17,1.72-0.5
			c0.42-0.39,0.63-1.09,0.63-2.1V22.54z"/>
		<linearGradient id="SVGID_11_" gradientUnits="userSpaceOnUse" x1="82.5318" y1="29.9999" x2="220.1846" y2="29.9999">
			<stop  offset="0.3203" style="stop-color:#CF469D"/>
			<stop  offset="0.5868" style="stop-color:#9683B2"/>
			<stop  offset="0.866" style="stop-color:#60BEC5"/>
			<stop  offset="1" style="stop-color:#4BD5CD"/>
		</linearGradient>
		<path class="st10" d="M257.43,44.66h-6.95V15.34h6.95c1.98,0,3.6,0.59,4.86,1.76c1.4,1.28,2.09,3.1,2.09,5.45v15.08
			c0,1.15-0.17,2.17-0.5,3.06c-0.39,0.95-0.94,1.73-1.63,2.35C261.05,44.12,259.44,44.66,257.43,44.66z M255.08,40.06h2.35
			c0.84,0,1.42-0.15,1.76-0.46c0.39-0.34,0.59-0.99,0.59-1.97V22.54c0-0.98-0.21-1.68-0.63-2.1c-0.36-0.34-0.94-0.5-1.72-0.5h-2.35
			V40.06z"/>
	</g>
	<g>
		<path class="st11" d="M62.9,40.27c0-1.48-1.96-2.8-5.03-3.67c0,0-0.01,0-0.01,0c-0.09-0.03-0.18-0.05-0.27-0.07
			c-0.01,0-0.01,0-0.02-0.01c-0.09-0.02-0.18-0.05-0.27-0.07c-0.01,0-0.01,0-0.02-0.01c-0.09-0.02-0.19-0.05-0.29-0.07l0,0
			c-0.72-4.69-2.64-9.21-3.95-11.89c0.04-0.01,0.09-0.02,0.13-0.04c0.12-0.06,0.2-0.17,0.22-0.29l3.54,0.33
			c0.93,0.09,1.45-1.05,0.77-1.69l-5.09-4.87c-0.04-0.04-0.09-0.08-0.14-0.12c-0.05-0.03-0.09-0.07-0.14-0.1
			c-0.02-0.01-0.04-0.02-0.06-0.03c-0.21-0.11-0.45-0.17-0.69-0.17l0,0h0c-0.21,0-0.42,0.05-0.61,0.13
			c-0.07,0.03-0.14,0.07-0.21,0.11c-0.11,0.07-0.21,0.16-0.3,0.26c-1.57,1.76-6.66,8.05-8.41,17.18c0,0.02-0.01,0.03-0.01,0.05
			c-0.02,0.12-0.04,0.24-0.07,0.36c-0.01,0.03-0.01,0.06-0.02,0.09c-0.01,0.07-0.02,0.14-0.04,0.22c-0.01,0.08-0.03,0.16-0.04,0.24
			c0,0.02-0.01,0.05-0.01,0.07c0,0.03-0.01,0.06-0.01,0.09l0,0c-2.64,0.59-4.64,1.49-5.61,2.56c-0.02,0.02-0.04,0.05-0.06,0.07
			c-0.06,0.06-0.11,0.13-0.15,0.2c-0.02,0.03-0.04,0.06-0.06,0.09c-0.05,0.07-0.09,0.15-0.13,0.22c-0.03,0.05-0.05,0.1-0.07,0.15
			c-0.02,0.05-0.04,0.1-0.06,0.15c-0.01,0.03-0.02,0.05-0.02,0.08c-0.04,0.15-0.06,0.31-0.06,0.46l0,0v0
			c0,2.61,6.11,4.73,13.64,4.73c0.12,0,0.23,0,0.35,0c0.02,0,0.04,0,0.06,0c0.09,0,0.19,0,0.28,0c0.04,0,0.07,0,0.11,0
			c0.08,0,0.15,0,0.23,0c0.04,0,0.09,0,0.13,0c0.07,0,0.13,0,0.2-0.01c0.05,0,0.1,0,0.15-0.01c0.06,0,0.12,0,0.18-0.01
			c0.05,0,0.11,0,0.16-0.01c0.05,0,0.11-0.01,0.16-0.01c0.06,0,0.11-0.01,0.17-0.01c0.05,0,0.1-0.01,0.15-0.01
			c0.06,0,0.12-0.01,0.18-0.01c0.04,0,0.08-0.01,0.12-0.01c0.07,0,0.13-0.01,0.2-0.01c0.03,0,0.06,0,0.09-0.01
			c0.08-0.01,0.15-0.01,0.23-0.02c0.01,0,0.03,0,0.04,0c0.59-0.05,1.16-0.11,1.72-0.18c0,0,0.01,0,0.01,0c0,0,0,0,0,0
			C59.27,44,62.9,42.28,62.9,40.27z"/>
		<path class="st11" d="M61.35,29.11c1.64,0,2.87-1.49,2.58-3.1l-1.14-6.26l4.98-2.24l0.61,3.41c-0.29-0.05-0.59-0.05-0.89,0
			c-1.42,0.26-2.37,1.62-2.11,3.05c0.24,1.29,1.36,2.15,2.57,2.15c1.64,0,2.88-1.48,2.58-3.09L69.09,15l-8.26,3.73l0.94,5.19
			c-0.29-0.05-0.59-0.06-0.89,0c-1.42,0.26-2.33,1.63-2.07,3.05C59.04,28.22,60.11,29.11,61.35,29.11z"/>
	</g>
</g>
</svg>
